# xmcd CD database file generated by Grip 3.0.7
# 
# Track frame offsets:
#       150
#       14010
#       29855
#       48300
#       67020
#       81292
#       98262
#       116772
#       139295
#       150752
#       172722
#       191522
#       209242
#       222290
# 
# Disc length: 3231 seconds
# 
# Revision: 4
# Processed by: cddbd v1.5.1PL0 Copyright (c) Steve Scherf et al.
# Submitted via: Grip 3.0.7
# 
DISCID=c50c9d0e
DTITLE=Bill Wyman's Rhythm Kings - Groovin'
DYEAR=2000
DGENRE=Blues
TTITLE0=Tell You A Secret
TTITLE1=Groovin'
TTITLE2=Rough Cut Diamond
TTITLE3=Mood Swing
TTITLE4=Hole In The Wall
TTITLE5=Can't Get My Rest At Night
TTITLE6=I Put A Spell On You
TTITLE7=Tomorrow Night
TTITLE8=I Want To Be Evil
TTITLE9=Rhythm King
TTITLE10=Daydream
TTITLE11=Oh! Baby
TTITLE12=Streamline Woman
TTITLE13=Yesterdays
EXTD=
EXTT0=
EXTT1=
EXTT2=
EXTT3=
EXTT4=
EXTT5=
EXTT6=
EXTT7=
EXTT8=
EXTT9=
EXTT10=
EXTT11=
EXTT12=
EXTT13=
PLAYORDER=
